<svg width="264" height="35" viewBox="0 0 264 35" fill="none" xmlns="http://www.w3.org/2000/svg">
<path d="M9.48 35H2.04C1.432 35 0.984 34.872 0.696 34.616C0.44 34.328 0.312 33.88 0.312 33.272V2.168C0.312 1.56 0.44 1.128 0.696 0.871999C0.984 0.583999 1.432 0.439999 2.04 0.439999H16.728C21.08 0.439999 24.056 1.304 25.656 3.032C27.256 4.76 28.056 7.016 28.056 9.8V15.944C28.056 18.728 27.256 20.984 25.656 22.712C24.056 24.44 21.08 25.304 16.728 25.304H11.208V33.272C11.208 33.88 11.064 34.328 10.776 34.616C10.52 34.872 10.088 35 9.48 35ZM16.056 21.224C17.56 21.224 18.776 21.064 19.704 20.744C20.664 20.424 21.4 19.992 21.912 19.448C22.424 18.872 22.776 18.2 22.968 17.432C23.16 16.632 23.256 15.768 23.256 14.84V11.288C23.256 10.36 23.16 9.496 22.968 8.696C22.776 7.896 22.424 7.208 21.912 6.632C21.4 6.056 20.664 5.608 19.704 5.288C18.776 4.936 17.56 4.76 16.056 4.76H5.688V30.68H6.168V21.224H16.056ZM6.168 20.744V5.24H16.056C17.464 5.24 18.6 5.4 19.464 5.72C20.36 6.008 21.048 6.424 21.528 6.968C22.008 7.512 22.328 8.152 22.488 8.888C22.68 9.624 22.776 10.424 22.776 11.288V14.84C22.776 15.704 22.68 16.504 22.488 17.24C22.328 17.944 22.008 18.568 21.528 19.112C21.048 19.624 20.36 20.024 19.464 20.312C18.6 20.6 17.464 20.744 16.056 20.744H6.168ZM11.112 9.416V16.664H15.432C16.36 16.664 16.968 16.424 17.256 15.944C17.544 15.464 17.688 14.92 17.688 14.312V11.768C17.688 11.16 17.544 10.616 17.256 10.136C16.968 9.656 16.36 9.416 15.432 9.416H11.112ZM59.1908 35H34.7588C34.1508 35 33.7028 34.872 33.4148 34.616C33.1588 34.328 33.0308 33.88 33.0308 33.272V2.168C33.0308 1.56 33.1588 1.128 33.4148 0.871999C33.7028 0.583999 34.1508 0.439999 34.7588 0.439999H42.1988C42.8068 0.439999 43.2388 0.583999 43.4948 0.871999C43.7828 1.128 43.9268 1.56 43.9268 2.168V25.928H50.5028V18.152C50.5028 17.544 50.6308 17.112 50.8868 16.856C51.1748 16.568 51.6228 16.424 52.2308 16.424H59.1908C59.7988 16.424 60.2308 16.568 60.4868 16.856C60.7748 17.112 60.9188 17.544 60.9188 18.152V33.272C60.9188 33.88 60.7748 34.328 60.4868 34.616C60.2308 34.872 59.7988 35 59.1908 35ZM38.2628 30.68H55.9268V20.744H55.4468V30.2H38.7428V4.76H38.2628V30.68ZM71.2538 20.456C71.2538 19.592 71.3178 18.792 71.4458 18.056C71.6058 17.32 71.7978 16.632 72.0218 15.992L75.0938 8.12C75.4138 7.32 75.7658 6.648 76.1498 6.104C76.5338 5.528 77.2058 5.24 78.1658 5.24H82.8698C83.7658 5.24 84.4058 5.528 84.7898 6.104C85.1738 6.648 85.5418 7.336 85.8938 8.168L89.2058 15.992C89.4298 16.632 89.6058 17.32 89.7338 18.056C89.8938 18.792 89.9738 19.592 89.9738 20.456V21.944H71.2538V20.456ZM78.9338 10.52L76.6778 17.816H84.2138L81.9578 10.52C81.8298 10.232 81.6858 10.024 81.5258 9.896C81.3978 9.768 81.2378 9.704 81.0458 9.704H79.8458C79.6538 9.704 79.4778 9.768 79.3178 9.896C79.1898 10.024 79.0618 10.232 78.9338 10.52ZM89.9738 30.68H90.4538V20.456C90.4538 19.56 90.3738 18.744 90.2137 18.008C90.0858 17.24 89.8938 16.504 89.6378 15.8L86.3258 7.976C85.9418 7.048 85.5258 6.28 85.0778 5.672C84.6618 5.064 83.9258 4.76 82.8698 4.76H78.1658C77.0778 4.76 76.3098 5.064 75.8618 5.672C75.4138 6.28 75.0138 7.032 74.6618 7.928L71.5898 15.8C71.3338 16.504 71.1258 17.24 70.9658 18.008C70.8378 18.744 70.7738 19.56 70.7738 20.456V30.68H71.2538V22.424H89.9738V30.68ZM76.1978 33.272C76.1978 33.88 76.0538 34.328 75.7657 34.616C75.5098 34.872 75.0778 35 74.4698 35H67.4138C66.8058 35 66.3578 34.872 66.0698 34.616C65.8138 34.328 65.6858 33.88 65.6858 33.272V20.6C65.6858 19.64 65.8298 18.536 66.1178 17.288C66.4378 16.04 66.9178 14.584 67.5578 12.92L71.7338 2.024C71.9258 1.48 72.2138 1.08 72.5978 0.823999C73.0138 0.567999 73.5418 0.439999 74.1818 0.439999H87.0938C87.7018 0.439999 88.1978 0.567999 88.5818 0.823999C88.9978 1.08 89.3018 1.48 89.4938 2.024L93.6698 12.92C94.3098 14.584 94.7738 16.04 95.0618 17.288C95.3818 18.536 95.5418 19.64 95.5418 20.6V33.272C95.5418 33.88 95.3978 34.328 95.1098 34.616C94.8538 34.872 94.4218 35 93.8138 35H86.5658C85.9258 35 85.4458 34.872 85.1258 34.616C84.8378 34.328 84.6938 33.88 84.6938 33.272V26.552H76.1978V33.272ZM117.77 35H109.994C109.386 35 108.938 34.872 108.65 34.616C108.394 34.328 108.266 33.88 108.266 33.272V27.128L100.922 17.288C100.186 16.296 99.6895 15.432 99.4335 14.696C99.2095 13.96 99.0975 12.856 99.0975 11.384V2.168C99.0975 1.56 99.2255 1.128 99.4815 0.871999C99.7695 0.583999 100.218 0.439999 100.826 0.439999H108.218C108.826 0.439999 109.258 0.583999 109.514 0.871999C109.802 1.128 109.946 1.56 109.946 2.168V10.04C109.946 10.36 109.962 10.696 109.994 11.048C110.026 11.4 110.154 11.736 110.378 12.056L112.586 15.512C112.746 15.8 112.906 16.008 113.066 16.136C113.258 16.264 113.482 16.328 113.738 16.328H114.218C114.474 16.328 114.682 16.264 114.842 16.136C115.034 16.008 115.21 15.8 115.37 15.512L117.578 12.056C117.802 11.736 117.93 11.4 117.962 11.048C117.994 10.696 118.01 10.36 118.01 10.04V2.168C118.01 1.56 118.138 1.128 118.394 0.871999C118.682 0.583999 119.13 0.439999 119.738 0.439999H126.89C127.498 0.439999 127.93 0.583999 128.186 0.871999C128.474 1.128 128.618 1.56 128.618 2.168V11.384C128.618 12.856 128.49 13.96 128.234 14.696C127.978 15.432 127.498 16.296 126.794 17.288L119.498 27.176V33.272C119.498 33.88 119.354 34.328 119.066 34.616C118.81 34.872 118.378 35 117.77 35ZM114.458 22.472C115.194 22.472 115.834 22.312 116.378 21.992C116.954 21.672 117.498 21.16 118.01 20.456L122.81 13.976C123.194 13.464 123.402 12.904 123.434 12.296C123.498 11.656 123.53 10.984 123.53 10.28V4.76H123.05V10.28C123.05 10.952 123.018 11.608 122.954 12.248C122.89 12.856 122.698 13.368 122.378 13.784L117.578 20.264C117.098 20.872 116.602 21.32 116.09 21.608C115.61 21.864 115.066 21.992 114.458 21.992H113.162C112.618 21.992 112.074 21.864 111.53 21.608C110.986 21.352 110.506 20.904 110.09 20.264L105.434 13.784C105.114 13.304 104.922 12.776 104.858 12.2C104.794 11.592 104.762 10.952 104.762 10.28V4.76H104.282V10.28C104.282 10.984 104.314 11.656 104.378 12.296C104.442 12.936 104.65 13.496 105.002 13.976L109.658 20.456C110.17 21.16 110.698 21.672 111.242 21.992C111.818 22.312 112.458 22.472 113.162 22.472H113.642V30.68H114.122V22.472H114.458ZM140.429 5.144C140.269 4.984 140.141 4.872 140.045 4.808C139.949 4.744 139.837 4.712 139.709 4.712C139.581 4.712 139.453 4.76 139.325 4.856C139.197 4.952 139.133 5.096 139.133 5.288V30.68H139.613V5.384C139.613 5.352 139.613 5.32 139.613 5.288C139.645 5.256 139.677 5.24 139.709 5.24C139.741 5.24 139.773 5.256 139.805 5.288C139.869 5.32 139.917 5.352 139.949 5.384L158.093 25.736V30.68H158.573V4.76H158.093V25.016L140.429 5.144ZM143.021 35H135.821C135.213 35 134.765 34.872 134.477 34.616C134.221 34.328 134.093 33.88 134.093 33.272V2.168C134.093 1.56 134.221 1.128 134.477 0.871999C134.765 0.583999 135.213 0.439999 135.821 0.439999H140.813C141.421 0.439999 141.933 0.535998 142.349 0.727998C142.797 0.919999 143.229 1.256 143.645 1.736L152.957 12.392V2.168C152.957 1.56 153.085 1.128 153.341 0.871999C153.629 0.583999 154.077 0.439999 154.685 0.439999H161.885C162.493 0.439999 162.925 0.583999 163.181 0.871999C163.469 1.128 163.613 1.56 163.613 2.168V33.272C163.613 33.88 163.469 34.328 163.181 34.616C162.925 34.872 162.493 35 161.885 35H154.685C154.077 35 153.629 34.872 153.341 34.616C153.085 34.328 152.957 33.88 152.957 33.272V27.368L144.749 17.432V33.272C144.749 33.88 144.605 34.328 144.317 34.616C144.061 34.872 143.629 35 143.021 35ZM194.234 35H171.962C171.354 35 170.906 34.872 170.618 34.616C170.362 34.328 170.234 33.88 170.234 33.272V2.168C170.234 1.56 170.362 1.128 170.618 0.871999C170.906 0.583999 171.354 0.439999 171.962 0.439999H194.234C194.842 0.439999 195.274 0.583999 195.53 0.871999C195.818 1.128 195.962 1.56 195.962 2.168V7.784C195.962 8.392 195.818 8.84 195.53 9.128C195.274 9.384 194.842 9.512 194.234 9.512H180.986V13.208H190.346C190.954 13.208 191.386 13.352 191.642 13.64C191.93 13.896 192.074 14.328 192.074 14.936V20.072C192.074 20.68 191.93 21.128 191.642 21.416C191.386 21.672 190.954 21.8 190.346 21.8H180.986V25.928H194.234C194.842 25.928 195.274 26.072 195.53 26.36C195.818 26.616 195.962 27.048 195.962 27.656V33.272C195.962 33.88 195.818 34.328 195.53 34.616C195.274 34.872 194.842 35 194.234 35ZM191.642 30.2H175.946V17.768H187.754V17.288H175.946V5.24H191.642V4.76H175.466V30.68H191.642V30.2ZM206.824 28.52C206.824 27.848 206.856 27.208 206.92 26.6C206.984 25.96 207.176 25.432 207.496 25.016L213.16 17.24H218.92L224.536 25.016C224.856 25.464 225.048 25.992 225.112 26.6C225.176 27.208 225.208 27.848 225.208 28.52V30.68H225.688V28.52C225.688 27.816 225.656 27.16 225.592 26.552C225.528 25.912 225.32 25.336 224.968 24.824L219.304 17.048L224.968 9.176C225.32 8.664 225.528 8.104 225.592 7.496C225.656 6.856 225.688 6.184 225.688 5.48V4.76H225.208V5.48C225.208 6.152 225.176 6.792 225.112 7.4C225.048 8.008 224.856 8.536 224.536 8.984L218.968 16.76H213.256L207.496 8.984C207.176 8.536 206.984 8.008 206.92 7.4C206.856 6.792 206.824 6.152 206.824 5.48V4.76H206.344V5.48C206.344 6.184 206.376 6.856 206.44 7.496C206.504 8.104 206.712 8.664 207.064 9.176L212.824 16.952L207.064 24.824C206.68 25.336 206.456 25.912 206.392 26.552C206.36 27.16 206.344 27.816 206.344 28.52V30.68H206.824V28.52ZM211.96 33.272C211.96 33.88 211.816 34.328 211.528 34.616C211.272 34.872 210.84 35 210.232 35H202.936C202.328 35 201.88 34.872 201.592 34.616C201.336 34.328 201.208 33.88 201.208 33.272V28.136C201.208 26.664 201.336 25.56 201.592 24.824C201.848 24.088 202.328 23.224 203.032 22.232L206.92 17L203.032 11.768C202.296 10.776 201.8 9.912 201.544 9.176C201.32 8.44 201.208 7.336 201.208 5.864V2.168C201.208 1.56 201.336 1.128 201.592 0.871999C201.88 0.583999 202.328 0.439999 202.936 0.439999H210.328C210.936 0.439999 211.368 0.583999 211.624 0.871999C211.912 1.128 212.056 1.56 212.056 2.168V5.48C212.056 5.8 212.072 6.136 212.104 6.488C212.136 6.84 212.264 7.176 212.488 7.496L214.6 10.52C214.76 10.776 214.92 10.984 215.08 11.144C215.272 11.272 215.496 11.336 215.752 11.336H216.328C216.584 11.336 216.792 11.272 216.952 11.144C217.112 10.984 217.288 10.776 217.48 10.52L219.64 7.496C219.864 7.176 219.992 6.84 220.024 6.488C220.056 6.136 220.072 5.8 220.072 5.48V2.168C220.072 1.56 220.2 1.128 220.456 0.871999C220.744 0.583999 221.192 0.439999 221.8 0.439999H229.096C229.704 0.439999 230.136 0.583999 230.392 0.871999C230.68 1.128 230.824 1.56 230.824 2.168V5.864C230.824 7.336 230.696 8.44 230.44 9.176C230.184 9.912 229.704 10.776 229 11.768L225.112 17.048L229 22.232C229.736 23.224 230.216 24.088 230.44 24.824C230.696 25.56 230.824 26.664 230.824 28.136V33.272C230.824 33.88 230.68 34.328 230.392 34.616C230.136 34.872 229.704 35 229.096 35H221.8C221.192 35 220.744 34.872 220.456 34.616C220.2 34.328 220.072 33.88 220.072 33.272V28.52C220.072 28.2 220.056 27.864 220.024 27.512C219.992 27.16 219.864 26.824 219.64 26.504L217.528 23.48C217.336 23.192 217.16 22.984 217 22.856C216.84 22.728 216.632 22.664 216.376 22.664H215.704C215.448 22.664 215.24 22.728 215.08 22.856C214.92 22.984 214.744 23.192 214.552 23.48L212.392 26.504C212.168 26.824 212.04 27.16 212.008 27.512C211.976 27.864 211.96 28.2 211.96 28.52V33.272ZM252.648 35H244.872C244.264 35 243.816 34.872 243.528 34.616C243.272 34.328 243.144 33.88 243.144 33.272V9.704H236.088C235.48 9.704 235.032 9.576 234.744 9.32C234.488 9.032 234.36 8.584 234.36 7.976V2.168C234.36 1.56 234.488 1.128 234.744 0.871999C235.032 0.583999 235.48 0.439999 236.088 0.439999H261.432C262.04 0.439999 262.472 0.583999 262.728 0.871999C263.016 1.128 263.16 1.56 263.16 2.168V7.976C263.16 8.584 263.016 9.032 262.728 9.32C262.472 9.576 262.04 9.704 261.432 9.704H254.376V33.272C254.376 33.88 254.232 34.328 253.944 34.616C253.688 34.872 253.256 35 252.648 35ZM248.52 30.68H249V5.24H258.84V4.76H238.68V5.24H248.52V30.68Z" fill="#CCFF00"/>
</svg>
