<svg width="29" height="35" viewBox="0 0 29 35" fill="none" xmlns="http://www.w3.org/2000/svg">
<path d="M9.48 35H2.04C1.432 35 0.984 34.872 0.696 34.616C0.44 34.328 0.312 33.88 0.312 33.272V2.168C0.312 1.56 0.44 1.128 0.696 0.871999C0.984 0.583999 1.432 0.439999 2.04 0.439999H16.728C21.08 0.439999 24.056 1.304 25.656 3.032C27.256 4.76 28.056 7.016 28.056 9.8V15.944C28.056 18.728 27.256 20.984 25.656 22.712C24.056 24.44 21.08 25.304 16.728 25.304H11.208V33.272C11.208 33.88 11.064 34.328 10.776 34.616C10.52 34.872 10.088 35 9.48 35ZM16.056 21.224C17.56 21.224 18.776 21.064 19.704 20.744C20.664 20.424 21.4 19.992 21.912 19.448C22.424 18.872 22.776 18.2 22.968 17.432C23.16 16.632 23.256 15.768 23.256 14.84V11.288C23.256 10.36 23.16 9.496 22.968 8.696C22.776 7.896 22.424 7.208 21.912 6.632C21.4 6.056 20.664 5.608 19.704 5.288C18.776 4.936 17.56 4.76 16.056 4.76H5.688V30.68H6.168V21.224H16.056ZM6.168 20.744V5.24H16.056C17.464 5.24 18.6 5.4 19.464 5.72C20.36 6.008 21.048 6.424 21.528 6.968C22.008 7.512 22.328 8.152 22.488 8.888C22.68 9.624 22.776 10.424 22.776 11.288V14.84C22.776 15.704 22.68 16.504 22.488 17.24C22.328 17.944 22.008 18.568 21.528 19.112C21.048 19.624 20.36 20.024 19.464 20.312C18.6 20.6 17.464 20.744 16.056 20.744H6.168ZM11.112 9.416V16.664H15.432C16.36 16.664 16.968 16.424 17.256 15.944C17.544 15.464 17.688 14.92 17.688 14.312V11.768C17.688 11.16 17.544 10.616 17.256 10.136C16.968 9.656 16.36 9.416 15.432 9.416H11.112Z" fill="#CCFF00"/>
</svg>
